<svg xmlns="http://www.w3.org/2000/svg" fill="none" viewBox="0 0 183 123" height="123" width="183">
<g clip-path="url(#clip0_1762_6160)">
<path fill="#6E7B2B" d="M109.418 56.2246C107.719 57.3783 105.993 58.4615 103.985 58.9987C103.588 59.1044 103.465 59.4478 103.263 59.7208C99.7839 64.5116 95.5832 68.5097 90.4578 71.5128C89.6212 72.0059 88.7669 72.4551 87.8599 72.8161C86.2395 73.4502 84.6895 73.3181 83.2188 72.411C80.6737 70.8435 78.7275 68.6595 76.9574 66.2993C76.6315 65.8678 76.7196 65.4363 76.931 64.9431C78.7275 60.6191 79.8107 56.1542 79.5993 51.4427C79.5817 50.9847 79.5201 50.5444 79.3439 50.06C78.1463 54.1199 76.6579 58.0035 74.6941 61.6935C72.7831 65.3042 70.5814 68.7123 67.6312 71.5744C66.2222 72.9482 64.637 74.0755 62.6467 74.3925C59.7406 74.8593 56.8432 73.3093 55.3901 70.6233C54.8089 69.5489 54.4743 68.3865 54.1484 67.0743C53.3646 67.7524 52.6601 68.3776 51.9292 68.9853C49.9037 70.6762 47.975 72.4903 45.7294 73.8905C41.8281 76.33 37.8563 74.9914 35.1263 72.3318C33.8581 71.0901 33.3298 69.3376 32.9423 67.6203C31.8503 62.715 31.9824 57.845 33.5147 53.0455C34.0255 51.4515 34.7564 49.9015 36.051 48.7831C38.2086 46.9161 40.7537 46.5198 43.4573 47.2596C44.6021 47.5766 44.972 48.5717 44.5757 49.8839C43.9945 51.8213 43.4837 53.7676 43.1314 55.7579C42.6999 58.2061 42.4357 60.6631 42.8849 63.1466C43.105 64.3883 43.563 65.5243 44.5581 66.3786C45.1041 66.8453 45.6941 66.9334 46.3634 66.7044C47.5611 66.2905 48.521 65.4979 49.4457 64.6701C50.1679 64.0184 50.8019 63.2787 51.5153 62.627C52.4223 61.7903 52.713 60.8128 52.5897 59.5887C51.9468 53.4153 51.9028 47.2331 52.4311 41.0421C53.0036 34.3844 53.9723 27.7971 55.8657 21.3683C56.8256 18.1099 58.0585 14.9572 59.723 11.9805C60.4187 10.7212 61.2641 9.57635 62.409 8.67809C65.3327 6.38839 68.7585 6.49406 71.5149 9.00393C73.9367 11.2056 75.1696 14.1029 76.0239 17.1676C77.4417 22.2666 77.2304 27.4008 76.1119 32.5086C73.8399 42.9267 69.146 52.1296 62.0127 60.0819C60.7445 61.4909 61.0351 64.2386 62.5675 65.3746C63.4217 66.0087 64.3024 65.8061 65.1478 65.3482C66.504 64.6173 67.4991 63.49 68.4414 62.3011C72.149 57.6513 74.6412 52.3585 76.6932 46.8368C76.7548 46.6607 76.8077 46.4758 76.9045 46.3084C77.4065 45.4102 77.5122 44.5824 76.6932 43.7722C76.1648 43.2614 76.3497 42.7418 76.8077 42.2222C79.0797 39.6243 84.0378 38.6732 87.0937 40.3112C88.9783 41.3239 89.63 43.1029 89.7797 45.0931C89.9646 47.5061 89.63 49.8575 88.7493 52.1384C88.0096 54.0406 87.3139 55.9692 86.9704 57.9947C86.7414 59.3509 87.1113 59.7208 88.4235 59.3509C89.8502 58.9546 90.9245 57.9947 91.8933 56.9379C95.2133 53.3008 96.9746 48.9328 97.8641 44.1597C98.2868 41.87 98.4101 39.5626 98.1019 37.2465C98.0578 36.9031 98.0667 36.5508 98.0755 36.1985C98.1107 33.9793 99.4845 32.9401 101.624 33.5918C104.557 34.4901 106.679 36.498 108.485 38.8757C110.704 41.8171 111.092 44.9434 109.251 48.2283C108.45 49.6637 107.648 51.0992 106.864 52.5347C106.75 52.7372 106.512 52.9574 106.644 53.1864C106.803 53.4594 107.085 53.248 107.305 53.2216C108.802 53.0543 109.876 52.1824 110.739 51.02C112.263 48.968 113.531 46.7224 115.213 44.7849C120.101 39.1311 125.992 34.9744 133.302 33.1074C136.454 32.306 139.669 32.2444 142.725 33.627C145.384 34.8335 147.489 36.5948 148.097 39.6419C148.361 40.9805 148.202 42.2839 147.278 43.3759C146.555 44.2213 145.745 44.415 144.741 43.9395C144.037 43.6048 143.359 43.2085 142.725 42.7594C139.695 40.6458 136.454 40.3816 133.143 41.8259C127.657 44.2125 123.711 48.2371 121.157 53.6267C120.576 54.8508 120.224 56.1806 120.55 57.5456C120.999 59.4126 122.258 60.6807 124.398 59.2893C124.671 59.1132 124.927 58.9194 125.182 58.7169C127.146 57.1141 128.652 55.115 130.149 53.0983C131.514 51.2577 132.773 49.3467 134.173 47.5326C135.486 45.8241 137.15 44.5648 139.449 44.7937C141.307 44.9787 142.998 45.7624 144.336 47.0746C145.455 48.1666 145.173 49.5669 144.653 50.8526C144.063 52.3057 143.526 53.7676 143.262 55.3087C142.945 57.1141 142.654 58.9194 143.015 60.76C143.191 61.6406 143.508 62.4596 144.477 62.7062C145.481 62.9616 146.177 62.398 146.74 61.6494C147.824 60.1964 148.326 58.4879 148.863 56.7882C151.197 49.3203 153.284 41.7731 155.063 34.1554C157 25.8508 158.673 17.5022 160.029 9.08319C160.408 6.74945 160.769 4.40691 161.139 2.07318C161.368 0.628906 162.601 -0.207716 164.028 0.0917067C164.512 0.188579 164.97 0.347097 165.366 0.628906C168.149 2.61918 170.051 5.26996 170.738 8.60764C171.187 10.8005 170.818 13.0637 170.254 15.2478C168.968 20.2499 167.286 25.1375 165.886 30.1044C164.653 34.4813 163.411 38.8493 162.178 43.2262C162.125 43.4111 162.064 43.5872 162.214 43.9219C162.742 43.3759 163.253 42.8827 163.737 42.3719C166.009 39.9677 168.158 37.4403 170.624 35.221C171.469 34.4636 172.341 33.7503 173.283 33.1251C174.772 32.1299 176.313 32.0507 177.845 32.9665C180.302 34.4284 181.993 36.5156 182.865 39.2544C183.138 40.1263 183.094 40.9805 182.838 41.87C181.465 46.5638 180.179 51.2841 179.342 56.1189C178.514 60.8745 178.752 65.5331 180.161 70.1478C180.769 72.1557 181.403 74.1547 181.755 76.2331C182.037 77.9063 181.288 78.7429 179.65 78.3643C176.683 77.6774 173.768 76.8055 171.082 75.3172C168.713 74.005 167.586 71.9883 167.568 69.2319C167.515 61.1387 169.003 53.3449 171.786 45.7712C171.874 45.5247 171.936 45.2605 172.015 45.0051C172.042 44.961 172.103 44.8994 172.086 44.8818C172.024 44.7673 171.962 44.8554 171.91 44.8994C169.497 46.4494 167.665 48.6158 165.895 50.8086C163.129 54.2167 160.857 57.9155 159.633 62.1866C159.228 63.5869 159.07 65.0312 158.876 66.4666C158.753 67.3297 158.515 68.1575 157.828 68.7651C157.141 69.364 156.348 69.725 155.45 69.4785C153.028 68.818 150.651 67.9549 148.731 66.2905C148.026 65.6828 147.692 65.7885 147.066 66.2641C144.944 67.8757 142.628 69.1086 139.933 69.4609C138.392 69.6634 136.868 69.5841 135.389 69.0998C133.108 68.3512 131.91 66.6604 131.857 64.1593C131.857 63.8775 132.016 63.4636 131.752 63.3403C131.443 63.1906 131.206 63.5781 130.959 63.763C128.502 65.6388 126.168 67.6819 123.394 69.1174C120.964 70.3767 118.436 70.8963 115.759 70.1125C112.034 69.0293 110.167 66.3257 109.418 62.6886C108.978 60.5486 108.881 58.4263 109.594 56.3215C109.7 56.2598 109.753 56.1806 109.656 56.0749L109.498 56.2334L109.418 56.2246ZM60.6477 53.2744C60.7974 53.1687 60.8502 53.1511 60.8766 53.1071C60.9999 52.931 61.1232 52.7548 61.2377 52.5787C64.3024 47.7263 66.3543 42.4688 67.4287 36.8326C68.1949 32.8256 68.5471 28.7922 67.9307 24.7236C67.7721 23.658 67.5696 22.6012 67.0324 21.6413C66.5745 20.8223 66.0549 20.8135 65.5001 21.5797C65.1126 22.1081 64.8924 22.7157 64.6899 23.3322C63.4746 27.0838 62.955 30.9763 62.453 34.8687C62.0391 38.0391 61.6868 41.2183 61.3786 44.4062C61.0968 47.3212 60.8942 50.245 60.6477 53.2744Z"></path>
<path fill="#6E7B2B" d="M-0.00367126 62.8972C0.0667811 58.9694 0.524721 55.0593 0.788918 51.1404C1.00027 47.9965 1.31731 44.8702 1.63435 41.735C2.07467 37.4815 2.59426 33.2367 3.17549 29.0008C3.40446 27.3451 3.5894 25.6895 3.89763 24.0515C4.46125 21.0573 5.94955 19.6042 8.68839 19.5249C10.8108 19.4633 12.9243 19.0846 15.0467 19.4193C17.0018 19.7275 17.8912 20.8635 17.5125 22.8362C16.8785 26.1386 16.1211 29.4059 15.4518 32.6995C14.4919 37.4463 13.6112 42.2018 12.9772 47.0013C12.9155 47.4769 12.9243 47.9701 12.8979 48.4544C12.8803 48.8419 12.8803 49.2382 13.3206 49.4055C13.805 49.5905 14.0604 49.2382 14.3158 48.9124C15.0291 48.0229 15.5575 47.019 16.0859 46.0238C18.3844 41.6998 20.6389 37.3494 22.9814 33.0518C25.5529 28.3315 28.4943 23.8578 31.9201 19.7187C33.8311 17.4026 36.1032 15.5532 39.0886 14.7078C41.6072 13.9944 43.7472 14.6373 45.5438 16.3986C47.9303 18.7411 49.0752 21.5681 48.5292 24.9586C48.3707 25.9537 48.0272 26.2707 47.0409 26.0506C42.8754 25.0907 39.705 26.9136 36.8869 29.6613C33.787 32.6907 31.603 36.3807 29.6215 40.1851C26.0725 47.0102 23.9149 54.3372 22.0127 61.7523C20.8062 66.4726 19.8639 71.2458 19.0977 76.0541C18.904 77.2959 18.2787 78.1061 16.9842 78.3791C13.7874 79.0396 10.6611 78.8987 7.65802 77.5601C3.4573 75.6931 1.11476 72.3818 0.330977 67.8905C0.049168 66.2348 -0.0388974 64.5792 -0.0212843 62.906L-0.00367126 62.8972Z"></path>
<path fill="#6E7B2B" d="M37.2109 38.5416C37.2109 35.4241 39.8705 32.8526 43.1201 32.8438C45.9382 32.8438 48.2191 35.0894 48.2279 37.8811C48.2279 40.7961 45.4539 43.2531 42.1074 43.2971C39.2629 43.3323 37.2197 41.3421 37.2109 38.5328V38.5416Z"></path>
<path fill="#6E7B2B" d="M141.241 91.2219C140.193 91.2219 139.278 91.2042 138.371 91.2219C137.974 91.2307 137.877 90.9489 137.745 90.6935C137.12 89.531 136.512 88.3685 135.887 87.2061C135.658 86.7746 134.769 86.5104 134.364 86.7393C134.126 86.8714 134.179 87.1092 134.179 87.3118C134.179 88.4126 134.161 89.5222 134.179 90.623C134.187 91.081 134.029 91.2131 133.58 91.2219C131.29 91.2923 131.29 91.3011 131.29 89.0114C131.29 85.8323 131.299 82.6619 131.281 79.4827C131.281 78.9367 131.405 78.7166 131.986 78.7518C133.835 78.8575 135.702 78.5757 137.543 78.9191C139.207 79.2273 140.264 80.1785 140.502 81.6051C140.792 83.3312 140.537 84.9076 138.925 85.9203C138.432 86.2286 138.529 86.4663 138.749 86.8538C139.559 88.2453 140.343 89.6543 141.224 91.2131L141.241 91.2219ZM134.179 82.7059C134.179 83.9447 134.777 84.523 135.975 84.4408C137.138 84.3616 137.816 83.6747 137.807 82.6091C137.789 81.6051 137.19 81.0943 135.958 81.0327C134.777 80.9799 134.187 81.5376 134.187 82.7059H134.179Z"></path>
<path fill="#6E7B2B" d="M125.178 84.8558C125.195 86.1416 125.01 87.2512 124.535 88.2992C123.513 90.536 121.761 91.5048 118.952 91.4079C116.908 91.3374 115.103 89.99 114.355 87.9117C113.685 86.0535 113.659 84.1601 114.249 82.2843C115.015 79.8449 117.164 78.3918 119.735 78.5063C122.492 78.6384 124.456 80.3116 125.002 82.9976C125.134 83.6581 125.231 84.3274 125.187 84.8646L125.178 84.8558ZM122.272 85.0055C122.254 84.0192 122.131 83.1209 121.673 82.3019C120.722 80.5935 118.494 80.5318 117.437 82.1786C116.459 83.6934 116.547 86.5555 117.622 88.0086C118.555 89.2767 120.396 89.3031 121.365 88.0614C122.078 87.1455 122.228 86.0623 122.272 85.0055Z"></path>
<path fill="#6E7B2B" d="M146.829 84.9762C146.829 83.118 146.847 81.2599 146.821 79.4017C146.821 78.9261 146.935 78.75 147.446 78.75C149.63 78.7764 151.805 78.7764 153.989 78.75C154.491 78.75 154.623 78.8997 154.623 79.3929C154.641 81.1718 154.658 81.1718 152.871 81.1718C152.008 81.1718 151.145 81.1894 150.29 81.1718C149.832 81.1542 149.63 81.2599 149.612 81.7794C149.568 83.62 149.551 83.62 151.391 83.62H152.281C153.98 83.62 154.253 83.9723 153.928 85.6631C153.848 86.0682 153.602 86.0242 153.337 86.0242C152.316 86.0242 151.294 86.0418 150.273 86.0242C149.788 86.0066 149.63 86.1563 149.621 86.6583C149.577 88.8247 149.559 88.8247 151.726 88.8247C152.536 88.8247 153.337 88.8423 154.148 88.8247C154.614 88.8071 154.808 88.9128 154.817 89.4411C154.852 91.2377 154.879 91.2377 153.082 91.2377C151.286 91.2377 149.366 91.2201 147.508 91.2465C146.979 91.2465 146.812 91.1056 146.821 90.5684C146.847 88.7102 146.829 86.852 146.829 84.9938V84.9762Z"></path>
<path fill="#6E7B2B" d="M90.3819 91.3919C88.7791 91.4536 87.3789 90.934 86.1195 89.9653C85.8289 89.7451 85.7056 89.5602 86.0227 89.2784C86.0667 89.2431 86.0931 89.1991 86.1283 89.1551C86.5158 88.7148 86.8329 88.0807 87.3172 87.8781C87.8192 87.6668 88.2507 88.3625 88.7615 88.5738C89.6069 88.9173 90.4435 89.1199 91.3418 88.838C91.7909 88.6971 92.0816 88.3977 92.1432 87.9222C92.2137 87.4202 91.9318 87.0855 91.5179 86.8918C90.4435 86.3898 89.3427 85.9583 88.2859 85.4387C86.9914 84.8135 86.2516 83.7567 86.234 82.3036C86.2164 80.8505 86.9738 79.8025 88.2155 79.1156C88.9817 78.6841 89.8359 78.4992 90.6989 78.5168C91.9583 78.5432 93.1207 78.9219 94.1599 79.6704C94.6619 80.0315 94.6971 80.3397 94.2744 80.7536C94.2568 80.7712 94.2392 80.7977 94.2215 80.8153C93.3761 81.8633 93.3761 81.8721 92.1784 81.3349C91.5972 81.0707 90.9984 80.9826 90.3731 81.0354C89.7919 81.0795 89.2987 81.2996 89.1578 81.9161C89.0169 82.5326 89.4572 82.8672 89.9416 83.0786C90.9984 83.5453 92.0992 83.924 93.1295 84.4436C95.4457 85.5972 95.7803 88.6179 93.8253 90.3087C93.0679 90.9604 92.1784 91.3127 91.1833 91.3919C90.9191 91.4096 90.6461 91.3919 90.3731 91.3919H90.3819Z"></path>
<path fill="#6E7B2B" d="M105.886 86.2678C105.886 87.6945 105.869 89.1212 105.895 90.5478C105.904 91.085 105.728 91.2259 105.199 91.2259C102.998 91.2435 102.998 91.2612 102.998 89.0859C102.998 86.6906 102.98 84.2864 103.006 81.891C103.006 81.3362 102.866 81.116 102.284 81.16C101.589 81.2041 100.884 81.1777 100.18 81.16C99.977 81.16 99.66 81.2481 99.6424 80.9663C99.5984 80.297 99.5984 79.6189 99.6424 78.9496C99.6512 78.703 99.933 78.7647 100.109 78.7647C103.015 78.7647 105.93 78.7647 108.836 78.7647C109.057 78.7647 109.294 78.7559 109.303 79.0641C109.303 79.6541 109.312 80.253 109.303 80.843C109.303 81.2041 109.013 81.16 108.775 81.16C108.07 81.16 107.375 81.2041 106.679 81.1512C106.01 81.0984 105.869 81.3626 105.886 81.9791C105.921 83.4057 105.895 84.8324 105.895 86.259L105.886 86.2678Z"></path>
<path fill="#6E7B2B" d="M109.415 56.221L109.574 56.0625C109.67 56.177 109.618 56.2474 109.512 56.3091C109.477 56.2827 109.441 56.2474 109.406 56.221H109.415Z"></path>
<path fill="#6E7B2B" d="M171.836 44.8962C171.888 44.8436 171.95 44.7648 172.011 44.8787C172.02 44.9049 171.967 44.9575 171.941 45.0013C171.906 44.9662 171.871 44.9312 171.836 44.8962Z"></path>
</g>
<defs>
<clipPath id="clip0_1762_6160">
<rect transform="translate(0 0.046875)" fill="white" height="122.605" width="183"></rect>
</clipPath>
</defs>
</svg>
